<svg width="24" height="24" viewBox="0 0 24 24" fill="none" xmlns="http://www.w3.org/2000/svg">
<path d="M12.9998 2.03003C17.7298 2.50003 21.4998 6.25003 21.9498 11C22.4998 16.5 18.4998 21.38 12.9998 21.93V19.93C16.6398 19.5 19.4998 16.61 19.9598 12.97C20.4998 8.58003 17.3898 4.59003 12.9998 4.05003V2.05003V2.03003ZM10.9998 2.06003V4.06003C9.5698 4.26003 8.2198 4.84003 7.0998 5.74003L5.6698 4.26003C7.18981 3.00003 9.0498 2.25003 10.9998 2.06003ZM4.2598 5.67003L5.6898 7.10003C4.7998 8.23003 4.2398 9.58003 4.0498 11H2.0498C2.2498 9.04003 2.9998 7.19003 4.2598 5.67003ZM2.0598 13H4.0598C4.2398 14.42 4.8098 15.77 5.6898 16.9L4.2698 18.33C3.0298 16.81 2.2598 14.96 2.0598 13ZM7.0998 18.37C8.2298 19.25 9.5798 19.82 10.9998 20V22C9.0398 21.79 7.1798 21 5.6698 19.74L7.0998 18.37ZM11.9998 16.5L7.4998 12H10.9998V8.00003H12.9998V12H16.4998L11.9998 16.5Z" fill="white"/>
</svg>
